<svg xmlns="http://www.w3.org/2000/svg" viewBox="0 0 512 512" role="img" aria-label="Unbox Your Potential">
  <rect width="512" height="512" rx="80" fill="#080808"/>
  <svg x="24" y="24" width="464" height="464" viewBox="41.0 0.0 3348.0 2420.0" preserveAspectRatio="xMidYMid meet">
    <path fill="#ffffff" d="M678.0 534.0V0.0H788.0V542.0Q788.0 578.0 802.5 594.0Q817.0 610.0 844.0 610.0Q871.0 610.0 885.5 594.0Q900.0 578.0 900.0 542.0V0.0H1006.0V534.0Q1006.0 619.0 964.0 664.5Q922.0 710.0 842.0 710.0Q762.0 710.0 720.0 664.5Q678.0 619.0 678.0 534.0Z M1104.0 0.0H1242.0L1349.0 419.0H1351.0V0.0H1449.0V700.0H1336.0L1204.0 189.0H1202.0V700.0H1104.0Z M1551.0 0.0H1717.0Q1802.0 0.0 1841.0 39.5Q1880.0 79.0 1880.0 161.0V189.0Q1880.0 243.0 1862.5 277.0Q1845.0 311.0 1809.0 326.0V328.0Q1891.0 356.0 1891.0 474.0V534.0Q1891.0 615.0 1848.5 657.5Q1806.0 700.0 1724.0 700.0H1551.0ZM1704.0 285.0Q1737.0 285.0 1753.5 268.0Q1770.0 251.0 1770.0 211.0V172.0Q1770.0 134.0 1756.5 117.0Q1743.0 100.0 1714.0 100.0H1661.0V285.0ZM1724.0 600.0Q1753.0 600.0 1767.0 584.5Q1781.0 569.0 1781.0 531.0V470.0Q1781.0 422.0 1764.5 403.5Q1748.0 385.0 1710.0 385.0H1661.0V600.0Z M1967.0 534.0V166.0Q1967.0 82.0 2010.0 36.0Q2053.0 -10.0 2134.0 -10.0Q2215.0 -10.0 2258.0 36.0Q2301.0 82.0 2301.0 166.0V534.0Q2301.0 618.0 2258.0 664.0Q2215.0 710.0 2134.0 710.0Q2053.0 710.0 2010.0 664.0Q1967.0 618.0 1967.0 534.0ZM2191.0 541.0V159.0Q2191.0 90.0 2134.0 90.0Q2077.0 90.0 2077.0 159.0V541.0Q2077.0 610.0 2134.0 610.0Q2191.0 610.0 2191.0 541.0Z M2492.0 342.0 2371.0 0.0H2487.0L2561.0 226.0H2563.0L2639.0 0.0H2743.0L2622.0 342.0L2749.0 700.0H2633.0L2553.0 456.0H2551.0L2469.0 700.0H2365.0Z M41.0 1720.0H203.0Q285.0 1720.0 326.0 1764.0Q367.0 1808.0 367.0 1893.0V1962.0Q367.0 2047.0 326.0 2091.0Q285.0 2135.0 203.0 2135.0H151.0V2420.0H41.0ZM203.0 2035.0Q230.0 2035.0 243.5 2020.0Q257.0 2005.0 257.0 1969.0V1886.0Q257.0 1850.0 243.5 1835.0Q230.0 1820.0 203.0 1820.0H151.0V2035.0Z M439.0 2254.0V1886.0Q439.0 1802.0 482.0 1756.0Q525.0 1710.0 606.0 1710.0Q687.0 1710.0 730.0 1756.0Q773.0 1802.0 773.0 1886.0V2254.0Q773.0 2338.0 730.0 2384.0Q687.0 2430.0 606.0 2430.0Q525.0 2430.0 482.0 2384.0Q439.0 2338.0 439.0 2254.0ZM663.0 2261.0V1879.0Q663.0 1810.0 606.0 1810.0Q549.0 1810.0 549.0 1879.0V2261.0Q549.0 2330.0 606.0 2330.0Q663.0 2330.0 663.0 2261.0Z M953.0 1820.0H838.0V1720.0H1178.0V1820.0H1063.0V2420.0H953.0Z M1251.0 1720.0H1551.0V1820.0H1361.0V2005.0H1512.0V2105.0H1361.0V2320.0H1551.0V2420.0H1251.0Z M1634.0 1720.0H1772.0L1879.0 2139.0H1881.0V1720.0H1979.0V2420.0H1866.0L1734.0 1909.0H1732.0V2420.0H1634.0Z M2167.0 1820.0H2052.0V1720.0H2392.0V1820.0H2277.0V2420.0H2167.0Z M2465.0 1720.0H2575.0V2420.0H2465.0Z M2762.0 1720.0H2911.0L3025.0 2420.0H2915.0L2895.0 2281.0V2283.0H2770.0L2750.0 2420.0H2648.0ZM2882.0 2188.0 2833.0 1842.0H2831.0L2783.0 2188.0Z M3098.0 1720.0H3208.0V2320.0H3389.0V2420.0H3098.0Z"/>
    <path fill="#c0392b" d="M1013.0 1262.0 880.0 860.0H997.0L1072.0 1117.0H1074.0L1149.0 860.0H1256.0L1123.0 1262.0V1560.0H1013.0Z M1318.0 1394.0V1026.0Q1318.0 942.0 1361.0 896.0Q1404.0 850.0 1485.0 850.0Q1566.0 850.0 1609.0 896.0Q1652.0 942.0 1652.0 1026.0V1394.0Q1652.0 1478.0 1609.0 1524.0Q1566.0 1570.0 1485.0 1570.0Q1404.0 1570.0 1361.0 1524.0Q1318.0 1478.0 1318.0 1394.0ZM1542.0 1401.0V1019.0Q1542.0 950.0 1485.0 950.0Q1428.0 950.0 1428.0 1019.0V1401.0Q1428.0 1470.0 1485.0 1470.0Q1542.0 1470.0 1542.0 1401.0Z M1742.0 1394.0V860.0H1852.0V1402.0Q1852.0 1438.0 1866.5 1454.0Q1881.0 1470.0 1908.0 1470.0Q1935.0 1470.0 1949.5 1454.0Q1964.0 1438.0 1964.0 1402.0V860.0H2070.0V1394.0Q2070.0 1479.0 2028.0 1524.5Q1986.0 1570.0 1906.0 1570.0Q1826.0 1570.0 1784.0 1524.5Q1742.0 1479.0 1742.0 1394.0Z M2168.0 860.0H2331.0Q2416.0 860.0 2455.0 899.5Q2494.0 939.0 2494.0 1021.0V1064.0Q2494.0 1173.0 2422.0 1202.0V1204.0Q2462.0 1216.0 2478.5 1253.0Q2495.0 1290.0 2495.0 1352.0V1475.0Q2495.0 1505.0 2497.0 1523.5Q2499.0 1542.0 2507.0 1560.0H2395.0Q2389.0 1543.0 2387.0 1528.0Q2385.0 1513.0 2385.0 1474.0V1346.0Q2385.0 1298.0 2369.5 1279.0Q2354.0 1260.0 2316.0 1260.0H2278.0V1560.0H2168.0ZM2318.0 1160.0Q2351.0 1160.0 2367.5 1143.0Q2384.0 1126.0 2384.0 1086.0V1032.0Q2384.0 994.0 2370.5 977.0Q2357.0 960.0 2328.0 960.0H2278.0V1160.0Z"/>
  </svg>
</svg>
